<?xml version="1.0" encoding="UTF-8"?>
<svg width="420px" height="400px" viewBox="0 0 420 400" version="1.1" xmlns="http://www.w3.org/2000/svg" xmlns:xlink="http://www.w3.org/1999/xlink">
    <title>Walvis</title>
    <description>Created by Kyle Dinh</description>
    <defs>
        <style type="text/css"><![CDATA[
            @keyframes kf-fluke {
                20% { transform: rotate(10deg); }
            }
            .fluke {
                animation: kf-fluke 3s ease-in-out infinite;
                transform-origin: 220px 210px;
                -webkit-transform-origin: 220px 210px;
            }
            @keyframes kf-fin {
                10% { transform: rotate(20deg) }
                30% { transform: rotate(-30deg) }
                40% { transform: rotate(20deg) }
            }
            .fin {
                animation: kf-fin 5s linear infinite;
                transform-origin: 236px 252px;
                -webkit-transform-origin: 236px 252px;
            }
            @keyframes kf-pupil {
                30% { transform: rotate(20deg); }
                50% { transform: rotate(-30deg); }
                70% { transform: rotate(20deg); }
            }
            .pupil {
                animation: kf-pupil 4s linear infinite;
                transform-origin: 10px 10px;
                -webkit-transform-origin: 10px 10px;
            }
        ]]></style>
    </defs>
    <g id="Page-1" stroke="none" stroke-width="1" fill="none" fill-rule="evenodd">
        <g id="walvis" class="walvis">
            <g id="Body" transform="translate(9.000000, 46.000000)">
                <path d="M-0.333007812,200.712891 L125.582031,270.90625 L125.582031,284.732422 L-0.333007812,211.760742 L-0.333007812,200.712891 Z" id="Front" fill="#EFEEEE"></path>
                <path d="M-0.473632812,201.12207 L125.603516,270.773438 L319.688477,159.212891 L195.681641,87.8876953 L-0.473632812,201.12207 Z" id="Deck" fill="#F6F6F6"></path>
                <path d="M125.710938,271 L319.335938,159.320312 C319.335938,159.320312 268.964844,204.566406 251.669922,231.941406 C234.375002,259.316407 125.710938,284.90332 125.710938,284.90332 L125.710938,271 Z" id="Side" fill="#C3C3C3"></path>
                <path d="M246.799,99.383c10.987-8.25-1.37-33.305-6.591-45.159S223.419,6.077,234.149-1.22
				c4.157-3.447-0.765,15.24,15.018,23.72c22.333,12,28.666,6,34.333,37c1,15.667,5.218,5.87,8.695,3.774
				c27.662-16.667,48.972,5.226,68.972-2.774c11.801-4.72,21.406-13.667,21.333-8.333c1.667,9.333-25.666,38.667-36.597,43.418
				c-24.388,5.915-51.444-9.401-70.403,5.915c-18.958,15.316-23.666,39.333-23.666,39.333s-7.478,27.266-28.253,23.228
				c-20.774-4.038-27.525-14.364-25.832-23.08c1.694-8.715,22.434-23.148,22.434-23.148S235.581,109.746,246.799,99.383z" class="fluke" fill="#F7F7F7"></path>
                <path d="M230.777344,247.957031 C230.777344,247.957031 231.160156,266.210937 255.511719,274.425781 C279.863281,282.640625 277.320312,274.242188 277.320312,264.304688 C277.320312,254.367188 264.058594,242.929688 249.421875,242.929688 C234.785156,242.929688 239.136719,236.027344 239.136719,236.027344 L230.777344,247.957031 Z" class="fin" fill="#C3C3C3"></path>
            </g>
            <g id="Eye" transform="translate(200.000000, 283.000000)">
                <path d="M8,15 C12.4182782,15 16,11.6421358 16,7.5 C16,3.35786417 12.4182782,0 8,0 C3.58172178,0 0,3.35786417 0,7.5 C0,11.6421358 3.58172178,15 8,15 Z" class="whites" fill="#F7F7F7"></path>
                <path d="M10.973684,5.5 C11.2477485,3.0147185 9.35000762,1 6.73496083,1 C4.11991404,1 2,3.0147185 2,5.5 C2,7.9852815 3.89774088,10 6.23872315,10 C8.57970542,10 10.6996195,7.9852815 10.973684,5.5 Z" class="pupil" fill="#4A4A4A"></path>
            </g>
            <g id="container">
	            <g>
		           <polygon fill="#FFCDD2" points="54.961,200.017 91.799,221.793 235.414,139.459 190.75,121.75 		"/>
                   <polygon fill="#EF9A9A" points="91.799,221.793 91.799,265.523 54.961,243.831 54.961,200.017 		"/>
                   <polygon fill="#F44336" points="91.821,265.523 235.414,183.07 235.414,139.459 91.799,222.25 		"/>
                </g>
	            <g>
                    <polygon fill="#EF9A9A" points="103.711,228.173 140.549,249.949 284.164,167.615 239.5,149.906 		"/>
                    <polygon fill="#E57373" points="140.549,249.949 140.549,293.68 103.711,271.987 103.711,228.173 		"/>
		            <polygon fill="#E53935" points="140.571,293.68 284.164,211.227 284.164,167.615 140.549,250.406 		"/>
	            </g>
	            <g>
                    <polygon fill="#FFCDD2" points="87.634,172.673 124.472,194.449 268.087,112.115 223.423,94.406 		"/>
                    <polygon fill="#EF9A9A" points="124.472,194.449 124.472,238.18 87.634,216.487 87.634,172.673 		"/>
		            <polygon fill="#F44336" points="124.494,238.18 268.087,155.727 268.087,112.115 124.472,194.906 		"/>
	            </g>
            </g>
        </g>
    </g>
</svg>
